<svg xmlns="http://www.w3.org/2000/svg" viewBox="0 0 192 192" width="192" height="192">
  <defs>
    <linearGradient id="skyGradient" x1="0%" y1="0%" x2="0%" y2="100%">
      <stop offset="0%" style="stop-color:#3b82f6"/>
      <stop offset="100%" style="stop-color:#1e40af"/>
    </linearGradient>
  </defs>
  <!-- Background -->
  <rect width="192" height="192" rx="32" fill="url(#skyGradient)"/>
  <!-- Sun -->
  <circle cx="130" cy="60" r="28" fill="#fbbf24"/>
  <g fill="#fbbf24">
    <rect x="126" y="20" width="8" height="16" rx="4"/>
    <rect x="126" y="88" width="8" height="16" rx="4"/>
    <rect x="92" y="56" width="16" height="8" rx="4"/>
    <rect x="152" y="56" width="16" height="8" rx="4"/>
    <rect x="100" y="30" width="8" height="16" rx="4" transform="rotate(45 104 38)"/>
    <rect x="152" y="30" width="8" height="16" rx="4" transform="rotate(-45 156 38)"/>
    <rect x="100" y="78" width="8" height="16" rx="4" transform="rotate(-45 104 86)"/>
    <rect x="152" y="78" width="8" height="16" rx="4" transform="rotate(45 156 86)"/>
  </g>
  <!-- Cloud -->
  <ellipse cx="70" cy="100" rx="35" ry="25" fill="white"/>
  <ellipse cx="100" cy="105" rx="30" ry="22" fill="white"/>
  <ellipse cx="55" cy="110" rx="25" ry="18" fill="white"/>
  <ellipse cx="115" cy="112" rx="22" ry="16" fill="white"/>
  <!-- Rain drops -->
  <g fill="#60a5fa">
    <ellipse cx="50" cy="145" rx="4" ry="8"/>
    <ellipse cx="70" cy="155" rx="4" ry="8"/>
    <ellipse cx="90" cy="148" rx="4" ry="8"/>
    <ellipse cx="110" cy="158" rx="4" ry="8"/>
    <ellipse cx="130" cy="150" rx="4" ry="8"/>
  </g>
</svg>
